<?xml version="1.0" encoding="utf-8" ?><svg xmlns="http://www.w3.org/2000/svg" xmlns:xlink="http://www.w3.org/1999/xlink" width="1024" height="1024" viewBox="0 0 1024 1024"><rect fill="white" fill-opacity="0" width="1024" height="1024"/><clipPath id="cl_f"><rect width="1024" height="1024"/></clipPath><g clip-path="url(#cl_f)"><path fill="#FEFEF9" transform="translate(-0.0102539 0.0966187)" d="M0 0L1024 0L1024 1024L0 1024L0 0Z"/><path fill="#27231F" transform="translate(-0.0102539 0.0966187)" d="M539.562 259.7C547.651 258.674 559.587 260.076 567.021 263.598C579.046 269.294 584.07 276.259 588.653 288.21C603.67 279.313 620.51 280.522 634.945 290.218C650.289 300.525 658.228 318.714 667.014 334.414C671.585 342.556 676.451 350.529 681.605 358.316C708.171 398.024 741.504 434.637 765.261 476.632C772.272 489.026 774.423 496.317 779.962 508.548C788.231 526.808 794.751 540.558 798.365 560.707C809.369 622.063 785.819 681.999 751.779 731.938C709.703 793.665 653.008 845.494 582.369 871.757C558.247 880.725 535.333 886.057 510.247 890.845C499.717 892.662 489.143 894.215 478.535 895.504C420.314 902.282 336.622 902.549 286.87 865.975C250.011 838.88 247.998 779.894 253.63 738.541C255.525 724.627 258.305 710.11 259.183 695.964C260.711 671.339 259.24 646.429 260.894 621.776C264.757 550.387 294.953 488.489 339.269 433.178C356.766 411.68 375.704 391.395 395.952 372.463C412.413 357.062 429.754 342.285 446.037 326.69C455.461 317.511 464.778 308.224 473.988 298.83C494.142 278.508 509.52 263.018 539.562 259.7Z"/><path fill="#FEFEF9" transform="translate(-0.0102539 0.0966187)" d="M529.936 292.564C538.009 291.854 541.544 292.835 544.578 300.984C532.887 313.554 519.96 332.943 510.865 347.379C491.616 378.389 473.959 410.361 457.963 443.168C439.384 481.226 423.104 521.838 437.9 563.988C469.388 653.578 585.978 609.382 638.525 566.349C674.496 536.89 695.78 508.352 666.572 465.344C645.042 433.642 619.811 399.82 606.256 363.962C603.174 355.811 588.083 307.808 612.726 319.616C621.671 323.853 627.714 337.903 632.26 346.075C650.233 382.083 677.064 413.342 699.334 446.5C714.625 469.266 736.06 497.159 729.729 526.142C722.376 559.804 696.317 591.492 674.72 617.413C664.326 629.888 638.829 651.83 645.611 669.682C647.163 673.665 650.313 676.816 654.295 678.37C661.317 681.183 667.96 678.992 674.428 676.217C700.601 663.42 729.002 619.531 741.892 594.003C744.134 589.562 750.75 573.904 753.025 571.59L754.11 571.658C758.313 575.07 757.639 589.028 757.18 594.01C754.759 620.262 744.643 645.16 732.192 668.155C720.62 689.183 707.406 709.263 692.673 728.21C673.37 753.388 653.765 774.125 631.087 790.819C608.663 807.326 583.236 819.88 552.127 828.867C489.907 846.84 398.423 854.786 338.18 824.524C324.061 817.431 312.195 804.606 308.24 789.197C301.17 761.645 307.058 729.942 308.266 701.712C309.346 679.756 308.611 657.691 308.768 635.721C309.144 583.108 321.698 534.282 347.179 488.185C377.808 432.773 425.516 392.744 469.576 348.615C484.291 333.877 497.28 317.27 512.238 302.804C517.232 297.977 523.279 294.466 529.936 292.564Z"/><path fill="#FEFEF9" transform="translate(-0.0102539 0.0966187)" d="M565.823 334.794C566.974 335.84 566.618 341.413 566.564 343.307C566.191 356.477 566.504 366.756 569.651 379.808C576.89 409.824 599.063 435.518 614.627 461.882C619.343 469.865 627.007 480.794 628.769 489.994C634.743 521.192 592.966 540.931 569.885 551.233C562.887 554.356 552.869 556.566 545.616 558.084C523.391 561.225 494.554 560.072 486.187 535.16C475.321 502.803 498.666 461.758 513.992 434.2C520.176 423.203 526.279 412.16 532.298 401.071C544.18 379.344 555.361 357.24 565.823 334.794Z"/><path fill="#27231F" transform="translate(-0.0102539 0.0966187)" d="M537.491 97.5762C552.861 96.4668 562.769 106.016 562.701 121.357C562.64 134.971 560.949 149.09 559.802 162.716L557.199 193.019C556.507 200.674 555.961 209.181 553.879 216.554C552.768 220.489 550.099 222.758 546.604 224.561C538.284 225.128 534.24 219.776 532.572 212.214C527.763 190 525.742 167.03 522.478 144.51C520.048 127.744 516.104 103.097 537.491 97.5762Z"/><path fill="#27231F" transform="translate(-0.0102539 0.0966187)" d="M416.988 149.687C424.666 150.2 431.307 154.096 435.921 160.176C451.537 180.749 468.352 200.552 483.462 221.476C485.675 224.54 486.746 227.39 487.591 231.005C485.18 240.491 479.477 242.383 470.586 239.589C456.308 233.116 438.869 217.074 426.325 207.055C414.958 197.975 395.128 183.14 398.159 166.847C400.1 156.417 406.581 151.075 416.988 149.687Z"/><path fill="#27231F" transform="translate(-0.0102539 0.0966187)" d="M659.291 154.616C666.103 154.244 674.084 157.517 677.308 163.667C688.151 184.353 659.34 202.115 646.491 213.788C638.488 221.059 625.302 231.044 616.415 235.75C609.595 238.603 599.323 239.854 598.33 230.594C597.156 219.643 611.92 202.694 618.142 193.86C626.25 182.348 634.841 169.328 645.299 160.164C648.66 157.219 655.058 155.346 659.291 154.616Z"/></g></svg>